# xmcd CD database file
#
# Track frame offsets:
#	182
#	18870
#	30362
#	50360
#	68362
#	85732
#	107760
#	114157
#	125092
#	135637
#	147375
#	164550
#	183562
#
# Disc length: 2640 seconds
#
# Revision: 1
# Processed by: cddbd v1.5.1PL0 Copyright (c) Steve Scherf et al.
# Submitted via: CDex 1.51
#
DISCID=a70a4e0d
DTITLE=Melanie - Carolina On My Mind
DYEAR=1991
DGENRE=Rock - Pop
TTITLE0=What Have They Done To My Song Ma
TTITLE1=Good Book
TTITLE2=Mr Tambourine Man
TTITLE3=Momma Momma
TTITLE4=Nickel Song
TTITLE5=Left Over Wine
TTITLE6=Somebody Loves Me
TTITLE7=I Don't Eat Animals
TTITLE8=I'm Back In Town
TTITLE9=We Don't Know Where We're Going
TTITLE10=Carolina On My Mind
TTITLE11=I Really Love Harold
TTITLE12=The Good Guys
EXTD=YEAR: 1991
EXTT0=
EXTT1=
EXTT2=
EXTT3=
EXTT4=
EXTT5=
EXTT6=
EXTT7=
EXTT8=
EXTT9=
EXTT10=
EXTT11=
EXTT12=
PLAYORDER=
